<?xml version="1.0" encoding="utf-8"?>
<!-- Generator: Adobe Illustrator 25.0.0, SVG Export Plug-In . SVG Version: 6.00 Build 0)  -->
<svg version="1.1" id="Capa_1" xmlns="http://www.w3.org/2000/svg" xmlns:xlink="http://www.w3.org/1999/xlink" x="0px" y="0px"
	 viewBox="0 0 512 512" style="enable-background:new 0 0 512 512;" xml:space="preserve">
<style type="text/css">
	.st0{fill:url(#SVGID_1_);}
	.st1{fill:url(#SVGID_2_);}
	.st2{fill:url(#SVGID_3_);}
	.st3{fill:url(#SVGID_4_);}
	.st4{fill:#FFFFFF;}
	.st5{fill:url(#SVGID_5_);}
	.st6{fill:url(#SVGID_6_);}
</style>
<linearGradient id="SVGID_1_" gradientUnits="userSpaceOnUse" x1="306.5524" y1="782.3453" x2="553.7124" y2="1029.5054" gradientTransform="matrix(1.0039 0 0 1.0039 1.1399 -486.3914)">
	<stop  offset="0" style="stop-color:#D8D8D8"/>
	<stop  offset="1" style="stop-color:#AFAFAF"/>
</linearGradient>
<path class="st0" d="M340.4,164.1c93.5-1.4,169.8,72.2,171.6,165.6c0.3,13.7-1.1,27.1-3.9,39.9c-4.8,21.7-7.6,43.8-7.6,66v42.9
	c0,6.6-5.3,11.9-11.9,11.9h-42.9c-22.2,0-44.3,2.8-66,7.6c-12.8,2.8-26.2,4.2-39.9,3.9C246.2,500.3,172.6,424,174,330.5
	C175.4,239.2,249.1,165.5,340.4,164.1z"/>
<linearGradient id="SVGID_2_" gradientUnits="userSpaceOnUse" x1="387.4597" y1="863.2482" x2="282.4797" y2="758.2781" gradientTransform="matrix(1.0039 0 0 1.0039 1.1399 -486.3914)">
	<stop  offset="0" style="stop-color:#AFAFAF;stop-opacity:0"/>
	<stop  offset="1" style="stop-color:#6A6A6A"/>
</linearGradient>
<path class="st1" d="M340.4,164.1c93.5-1.4,169.8,72.2,171.6,165.6c0.3,13.7-1.1,27.1-3.9,39.9c-4.8,21.7-7.6,43.8-7.6,66v42.9
	c0,6.6-5.3,11.9-11.9,11.9h-42.9c-22.2,0-44.3,2.8-66,7.6c-12.8,2.8-26.2,4.2-39.9,3.9C246.2,500.3,172.6,424,174,330.5
	C175.4,239.2,249.1,165.5,340.4,164.1z"/>
<linearGradient id="SVGID_3_" gradientUnits="userSpaceOnUse" x1="129.0309" y1="666.2769" x2="389.9809" y2="927.2269" gradientTransform="matrix(1.0039 0 0 1.0039 1.1399 -486.3914)">
	<stop  offset="0" style="stop-color:#BEBEBE"/>
	<stop  offset="1" style="stop-color:#7A7A7A"/>
</linearGradient>
<path class="st2" d="M209.1,9.9C95.2,8.2,2.2,97.8,0,211.7c-0.3,16.7,1.3,33,4.8,48.6c5.8,26.4,9.3,53.3,9.3,80.4V393
	c0,8,6.5,14.5,14.5,14.5H81c27.1,0,54,3.5,80.4,9.3c15.6,3.4,31.9,5.1,48.6,4.8c113.9-2.2,203.5-95.2,201.8-209.1
	C410.1,101.4,320.3,11.6,209.1,9.9z"/>
<linearGradient id="SVGID_4_" gradientUnits="userSpaceOnUse" x1="178.0982" y1="780.8596" x2="40.7041" y2="643.4696" gradientTransform="matrix(1.0039 0 0 1.0039 1.1399 -486.3914)">
	<stop  offset="0" style="stop-color:#7A7A7A;stop-opacity:0"/>
	<stop  offset="1" style="stop-color:#5C5C5C"/>
</linearGradient>
<path class="st3" d="M132.2,204.7c-5.8-6.2-14-10.1-23.2-10.1c-17.6,0-31.9,14.3-31.9,31.9c0,9.2,3.9,17.4,10.1,23.2l68.8,68.8
	c5.8,6.2,14,10.1,23.2,10.1c17.6,0,31.9-14.3,31.9-31.9c0-9.2-3.9-17.4-10.1-23.2L132.2,204.7z"/>
<circle class="st4" cx="109" cy="226.6" r="31.9"/>
<linearGradient id="SVGID_5_" gradientUnits="userSpaceOnUse" x1="267.9325" y1="780.8553" x2="130.5425" y2="643.4654" gradientTransform="matrix(1.0039 0 0 1.0039 1.1399 -486.3914)">
	<stop  offset="0" style="stop-color:#7A7A7A;stop-opacity:0"/>
	<stop  offset="1" style="stop-color:#5C5C5C"/>
</linearGradient>
<path class="st5" d="M222.4,204.7c-5.8-6.2-14-10.1-23.2-10.1c-17.6,0-31.9,14.3-31.9,31.9c0,9.2,3.9,17.4,10.1,23.2l68.8,68.8
	c5.8,6.2,14,10.1,23.2,10.1c17.6,0,31.9-14.3,31.9-31.9c0-9.2-3.9-17.4-10.1-23.2L222.4,204.7z"/>
<circle class="st4" cx="199.2" cy="226.6" r="31.9"/>
<linearGradient id="SVGID_6_" gradientUnits="userSpaceOnUse" x1="357.7718" y1="780.856" x2="220.3818" y2="643.4661" gradientTransform="matrix(1.0039 0 0 1.0039 1.1399 -486.3914)">
	<stop  offset="0" style="stop-color:#7A7A7A;stop-opacity:0"/>
	<stop  offset="1" style="stop-color:#5C5C5C"/>
</linearGradient>
<path class="st6" d="M312.6,204.7c-5.8-6.2-14-10.1-23.2-10.1c-17.6,0-31.9,14.3-31.9,31.9c0,9.2,3.9,17.4,10.1,23.2l68.8,68.8
	c5.8,6.2,14,10.1,23.2,10.1c17.6,0,31.9-14.3,31.9-31.9c0-9.2-3.9-17.4-10.1-23.2L312.6,204.7z"/>
<circle class="st4" cx="289.4" cy="226.6" r="31.9"/>
</svg>
