<?xml version="1.0" encoding="utf-8"?>
<!-- Generator: Adobe Illustrator 25.0.0, SVG Export Plug-In . SVG Version: 6.00 Build 0)  -->
<svg version="1.1" id="Capa_1" xmlns="http://www.w3.org/2000/svg" xmlns:xlink="http://www.w3.org/1999/xlink" x="0px" y="0px"
	 viewBox="0 0 1280 1170" style="enable-background:new 0 0 1280 1170;" xml:space="preserve">
<style type="text/css">
	.st0{fill:#606060;}
</style>
<path class="st0" d="M1176.3,1003.6L962,789.3c133.7-189.5,115.7-453.2-53.8-622.7c-189.6-189.6-497-189.6-686.6,0
	s-189.6,497,0,686.6c169.5,169.5,433.3,187.5,622.7,53.8l214.3,214.3c32.5,32.5,85.2,32.5,117.7,0v0
	C1208.8,1088.8,1208.8,1036.1,1176.3,1003.6z M804.4,749.4c-132.3,132.3-346.9,132.3-479.2,0s-132.3-346.9,0-479.2
	s346.9-132.3,479.2,0S936.8,617.1,804.4,749.4z"/>
</svg>
