<?xml version="1.0" encoding="utf-8"?>
<!-- Generator: Adobe Illustrator 25.0.0, SVG Export Plug-In . SVG Version: 6.00 Build 0)  -->
<svg version="1.1" id="Capa_1" xmlns="http://www.w3.org/2000/svg" xmlns:xlink="http://www.w3.org/1999/xlink" x="0px" y="0px"
	 viewBox="0 0 511 512" style="enable-background:new 0 0 511 512;" xml:space="preserve">
<style type="text/css">
	.st0{fill:#C5C5C5;}
	.st1{fill:#B7B7B7;}
	.st2{fill:#D7D7D7;}
	.st3{fill:#FC476E;}
	.st4{fill:#CC2B5A;}
	.st5{fill:#E3FAFF;}
</style>
<path class="st0" d="M293.1,451.1c0-33.1-26.8-59.9-60-59.9s-60,26.8-60,59.9s26.8,59.9,60,59.9S293.1,484.2,293.1,451.1z"/>
<path class="st1" d="M233.2,391.3c-6.1,0-11.9,0.9-17.4,2.6c24.6,7.5,42.5,30.3,42.5,57.3c0,27-17.9,49.8-42.5,57.3
	c5.5,1.7,11.4,2.6,17.4,2.6c33.1,0,60-26.8,60-59.9S266.3,391.3,233.2,391.3z"/>
<path class="st0" d="M240.2,101.7c-19.3,3.9-38-8.6-41.9-27.8c-3.9-19.2,8.6-37.9,27.9-41.8s38,8.6,41.9,27.8
	C271.9,79.1,259.4,97.8,240.2,101.7z"/>
<path class="st1" d="M268,59.9c-3.9-19.2-22.6-31.7-41.9-27.8c-1.8,0.4-3.5,0.9-5.2,1.5c11.2,4.1,20.1,13.8,22.7,26.4
	c3.5,17.4-6.4,34.5-22.7,40.4c5.9,2.2,12.5,2.8,19.2,1.5C259.4,97.8,271.9,79.1,268,59.9z"/>
<path class="st2" d="M381.7,441.1H84.6c-26.6,0-48.1-21.5-48.1-48c0-14.7,6.7-28.6,18.1-37.8l9.5-7.7c22.1-17.8,34.9-44.6,34.9-72.9
	v-50.5c0-74.5,60.5-134.9,135.1-134.9c74.6,0,135.1,60.4,135.1,134.9v51.4c0,27.8,12.4,54.1,33.7,71.9l9.3,7.7
	c11.1,9.2,17.5,22.9,17.5,37.3v0.5C429.8,419.6,408.3,441.1,381.7,441.1z"/>
<path class="st0" d="M412.3,355.3l-9.3-7.7c-21.4-17.8-33.7-44.1-33.7-71.9v-51.4c0-74.5-60.5-134.9-135.1-134.9
	c-13.2,0-26,1.9-38.1,5.4c56.1,16.4,97,68.2,97,129.5v51.4c0,27.8,12.4,54.1,33.7,71.9l9.3,7.7c11.1,9.2,17.5,22.9,17.5,37.3v0.5
	c0,26.5-21.5,48-48.1,48h76.1c26.6,0,48.1-21.5,48.1-48v-0.5C429.8,378.2,423.4,364.5,412.3,355.3z"/>
<g>
	<path class="st3" d="M476.1,116.8C476.1,52.8,424.2,1,360.1,1s-116,51.8-116,115.8s51.9,115.8,116,115.8S476.1,180.7,476.1,116.8z"
		/>
	<path class="st4" d="M391.2,5.2c29.6,21,48.9,55.5,48.9,94.4c0,63.9-51.9,115.8-116,115.8c-10.8,0-21.2-1.5-31.1-4.2
		c18.9,13.4,42.1,21.3,67.1,21.3c64,0,116-51.8,116-115.8C476.1,63.6,440.2,18.8,391.2,5.2z"/>
	<path class="st5" d="M360.1,170.9c-4.5,0-8.1-3.6-8.1-8.1v-78l-3,2.8c-3.3,3-8.4,2.8-11.4-0.5c-3-3.3-2.8-8.4,0.5-11.4l16.6-15.1
		c2.4-2.2,5.8-2.7,8.7-1.4c2.9,1.3,4.8,4.2,4.8,7.4v96.3C368.2,167.2,364.6,170.9,360.1,170.9z"/>
</g>
</svg>
